<?xml version="1.0" encoding="utf-8"?>
<!-- Generator: Adobe Illustrator 24.0.2, SVG Export Plug-In . SVG Version: 6.00 Build 0)  -->
<svg version="1.1" id="Layer_3" xmlns="http://www.w3.org/2000/svg" xmlns:xlink="http://www.w3.org/1999/xlink" x="0px" y="0px"
	 viewBox="0 0 275 275" style="enable-background:new 0 0 275 275;" xml:space="preserve">
<style type="text/css">
	.st0{fill:#1D1D1B;}
	.st1{fill:#231F20;}
	.st2{fill:#B24517;}
	.st3{fill:#A54115;}
	.st4{fill:#D04F1E;}
	.st5{fill:#C74C1B;}
	.st6{font-family:'TimesNewRomanPSMT';}
	.st7{font-size:204.9539px;}
</style>
<circle class="st0" cx="137.5" cy="137.5" r="137.5"/>
<g id="XMLID_4725_">
	<g id="XMLID_757_">
		<g id="XMLID_756_">
			<path id="XMLID_1457_" class="st1" d="M234.9,92.1c-2.5-16.9-12.4-32.2-26.5-41.7c-1.9-1.3-3.9-2.5-6-3.6c-1-0.5-1.3-1-2.1-0.1
				c-0.7,0.8-0.8,2.7-1,3.6c-0.6,3-0.9,6-0.8,9.1c0.2,6.1,2,12.1,5.1,17.3c5.3,8.7,14.6,14.9,24.7,16c-9.5-1.8-18.2-7.8-23.3-16.1
				c-5-8.3-6.3-18.8-3.5-28.1c15.1,7.4,26.3,21.4,31.4,37.3c0.2,0.6,0.4,1.3,0.6,1.9c0.6,1.9,1,4,1.5,6
				C235.1,93.1,235,92.6,234.9,92.1z"/>
			<path id="XMLID_765_" class="st1" d="M232.4,100.1c-3.6,7.9-12.4,14-20.4,16.4c-2.2,0.7-4.4,1.1-6.7,1.3
				c-1.7,0.1-5.1,0.7-6.5-0.2c0.6-1,1.3-1.9,2-2.8l1.5-2.1c3.5-4.8,6.5-10,11.3-13.7c3.9-2.9,9.1-4.6,13.7-3.2
				c-3.5-1.6-7.7-1.2-11.2,0.4s-6.5,4.2-9,7.1c-2.7,3-5,6.3-7.3,9.5c-0.9,1.3-1.9,2.7-2.8,4c-0.9,1.3-1.1,2.6,0.8,2.8
				c6.9,0.9,14-0.4,20.2-3.7c6.8-3.7,12.2-9.8,14.9-16.9C232.7,99.3,232.6,99.7,232.4,100.1z"/>
		</g>
		<path id="XMLID_1239_" class="st1" d="M216.8,119.1c0,0,23.3-6.9,23.6-37.8C240.4,81.3,245.7,114.2,216.8,119.1z"/>
		<path id="XMLID_767_" class="st2" d="M232.9,91.3c0,0-5.3-26.4-30.5-40.5C202.4,50.8,198.2,86.5,232.9,91.3z"/>
		<path id="XMLID_768_" class="st3" d="M231.5,98.4c0,0-11.3-5.3-20.8,5.9c-9.5,11.1-9.9,12.4-9.9,12.4S222.3,117.4,231.5,98.4z"/>
		<g id="XMLID_821_">
			<path id="XMLID_915_" class="st1" d="M235,92.1c1.2-17.1-5.1-34.1-16.8-46.5c-1.6-1.7-3.3-3.3-5.1-4.8c-0.9-0.7-1.1-1.3-2-0.6
				c-0.8,0.6-1.3,2.4-1.8,3.3c-1.3,2.8-2.2,5.7-2.7,8.7c-1.1,6-0.7,12.2,1.2,18c3.3,9.6,11.1,17.7,20.7,21
				c-8.9-3.8-16.1-11.6-19.2-20.8c-3.1-9.2-2.1-19.7,2.7-28.2c13.1,10.5,21,26.6,22.6,43.2c0.1,0.7,0.1,1.3,0.2,2
				c0.1,2,0.1,4.2,0.1,6.2C234.9,93.2,234.9,92.7,235,92.1z"/>
			<path id="XMLID_838_" class="st1" d="M230.8,99.3c-5.2,6.9-15.2,11-23.4,11.6c-2.3,0.2-4.5,0.1-6.8-0.2c-1.7-0.2-5.1-0.5-6.3-1.7
				c0.8-0.8,1.7-1.5,2.6-2.3l2-1.7c4.4-3.9,8.5-8.4,14-10.9c4.4-2,9.8-2.6,14.1-0.2c-3.1-2.3-7.3-2.9-11-2.1
				c-3.8,0.8-7.2,2.7-10.4,5c-3.3,2.3-6.2,5-9.2,7.7c-1.2,1.1-2.4,2.2-3.6,3.3c-1.2,1.1-1.7,2.3,0.2,2.9c6.5,2.4,13.8,2.7,20.5,0.8
				c7.4-2.1,14-6.9,18.3-13.3C231.3,98.7,231,99,230.8,99.3z"/>
		</g>
		<path id="XMLID_812_" class="st4" d="M233.1,90.9c0,0,0.6-26.9-21-46.2C212.2,44.7,200.4,78.6,233.1,90.9z"/>
		<path id="XMLID_809_" class="st4" d="M230.3,97.6c0,0-9.9-7.6-21.6,1.2c-11.7,8.8-12.3,9.9-12.3,9.9S217.1,114,230.3,97.6z"/>
	</g>
</g>
<text transform="matrix(1 0 0 1 87.5 210.3996)" class="st5 st6 st7">P</text>
</svg>
